PathFileType	4	(X/Y/Z)	C:\Users\Biomechanik\SynologyDrive\AlexP\Athlete_03\Athlete_3_25_03_31\Walking_10\marker_experimental.trc
DataRate	CameraRate	NumFrames	NumMarkers	Units	OrigDataRate	OrigDataStartFrame	OrigNumFrames
200.000000	200.000000	4	53	mm	200.000000	55	223
Frame#	Time	GLAB			RFHD			LFHD			C7			T6			SPINMOL			SPINM2			SPINM3			T12			BELTOL			BELT2			BELT3			SACROL			SACR2			SACR3			LTHOL			LTH2			LTH3			LSHAOL			LSHA2			LSHA3			LHEE			LTOE			LM5			RTHOL			RTH2			RTH3			RSHAOL			RSHA2			RSHA3			RHEE			RTOE			RM5			STRN			XIPH			LACR			LUAOL			LUA2			LUA3			LLAOL			LLA2			LLA3			LWRR			LWRU			RACR			RUAOL			RUA2			RUA3			RLAOL			RLA2			RLA3			RWRR			RWRU			
		X1	Y1	Z1	X2	Y2	Z2	X3	Y3	Z3	X4	Y4	Z4	X5	Y5	Z5	X6	Y6	Z6	X7	Y7	Z7	X8	Y8	Z8	X9	Y9	Z9	X10	Y10	Z10	X11	Y11	Z11	X12	Y12	Z12	X13	Y13	Z13	X14	Y14	Z14	X15	Y15	Z15	X16	Y16	Z16	X17	Y17	Z17	X18	Y18	Z18	X19	Y19	Z19	X20	Y20	Z20	X21	Y21	Z21	X22	Y22	Z22	X23	Y23	Z23	X24	Y24	Z24	X25	Y25	Z25	X26	Y26	Z26	X27	Y27	Z27	X28	Y28	Z28	X29	Y29	Z29	X30	Y30	Z30	X31	Y31	Z31	X32	Y32	Z32	X33	Y33	Z33	X34	Y34	Z34	X35	Y35	Z35	X36	Y36	Z36	X37	Y37	Z37	X38	Y38	Z38	X39	Y39	Z39	X40	Y40	Z40	X41	Y41	Z41	X42	Y42	Z42	X43	Y43	Z43	X44	Y44	Z44	X45	Y45	Z45	X46	Y46	Z46	X47	Y47	Z47	X48	Y48	Z48	X49	Y49	Z49	X50	Y50	Z50	X51	Y51	Z51	X52	Y52	Z52	X53	Y53	Z53	

56	0.275	-125.4818344116212	1597.603881835938	255.3346710205078	-174.3748931884767	1622.769287109375	320.8334960937499	-168.4956970214845	1624.907836914062	183.2918701171875	-356.8515625000002	1443.109741210938	241.5906219482421	-417.1303710937501	1274.954833984375	234.6820068359374	-425.6992187500001	1235.257690429688	213.2574310302734	-428.5711059570314	1227.458251953125	263.1071777343749	-421.474090576172	1170.967041015625	228.4818572998046	-399.2846984863282	1104.787109375	229.2130889892577	-434.6156616210939	1070.0712890625	216.7802124023437	-431.2137451171876	1067.451904296875	267.0708007812499	-438.0799865722657	1007.6875	237.8997344970702	-421.4161987304689	957.471435546875	208.2222595214843	-418.3332519531251	953.5597534179688	259.4731445312499	-433.1561584472657	895.7590942382812	230.3504638671874	-262.9685974121094	675.5911254882812	18.16170120239253	-287.9685363769532	607.5232543945312	47.73951721191401	-245.6554565429688	618.3308715820312	25.13182640075679	-296.8793640136719	407.7791748046875	19.43253135681147	-370.9456481933594	393.9115905761719	45.7315368652343	-333.3472595214844	360.9273071289062	36.39194107055658	-494.5351867675782	270.8233337402343	157.4703216552734	-369.3473815917969	90.22031402587888	144.2519989013671	-427.664306640625	105.1547012329101	56.5507507324218	-312.0273437500001	680.891357421875	399.8617553710937	-249.4132690429689	631.4889526367188	400.6963806152343	-297.0088500976564	622.6553955078125	387.7579650878906	-310.6313476562501	333.0263366699219	377.9466552734374	-278.8595275878907	261.1574096679688	368.8351745605468	-326.7607421875001	274.6607666015625	363.5921630859374	-377.8187561035157	64.76281738281247	252.0827331542968	-164.3286895751954	43.89258575439452	255.9929656982422	-215.0719299316407	38.64368438720702	358.4544677734374	-187.8953094482423	1340.999877929688	233.5004577636718	-173.0909729003907	1197.2685546875	227.9922943115234	-283.6725158691407	1410.985595703125	63.43796157836909	-291.6974487304688	1259.932495117188	-42.13229370117193	-305.8891601562501	1199.398559570312	-63.5966529846192	-258.9570617675782	1202.483032226562	-42.46572113037114	-256.7015075683594	998.2020263671875	-96.63546752929692	-284.8595275878907	925.9752197265625	-82.25412750244146	-238.9233551025391	939.456298828125	-96.36190795898442	-199.3515014648438	842.7920532226562	-98.17510986328129	-158.7726745605469	853.5094604492188	-31.44304084777835	-266.270477294922	1388.78515625	406.7844238281249	-276.0083923339845	1236.306884765625	503.2824096679687	-250.8143768310549	1174.914794921875	504.1757812499999	-298.4097900390627	1177.831176757812	524.087158203125	-254.4000091552736	959.5223388671875	545.6644287109375	-191.7298736572267	912.22021484375	562.6919555664062	-237.294387817383	899.1860961914062	545.3450317382812	-189.6118774414064	822.095947265625	550.6905517578125	-158.8857269287111	812.4629516601562	474.9195556640624	
57	0.28	-118.6378021240236	1597.92333984375	255.0156097412109	-167.521194458008	1623.187133789062	320.4840393066406	-161.6289367675783	1625.185791015625	182.9422149658203	-350.0524902343752	1443.517456054688	241.4937591552734	-410.3852539062501	1275.369018554688	234.9319763183593	-418.9543762207032	1235.665649414062	213.5732116699218	-421.816131591797	1227.910888671875	263.4310913085937	-414.7608642578126	1171.385864257812	228.8495025634765	-392.6172180175782	1105.195434570312	229.6177673339843	-428.1527404785157	1070.465087890625	217.0494537353515	-424.7871093750001	1067.784912109375	267.3403320312499	-431.5122070312501	1008.045593261719	238.0787506103515	-414.6678161621095	958.0183715820312	207.9022979736327	-411.8764038085939	953.8258056640625	259.1572875976562	-426.6869201660157	896.21337890625	229.6359100341796	-252.648910522461	676.8577880859375	17.75277709960933	-277.6925659179688	608.3396606445312	46.00389480590815	-234.8965148925782	619.7509155273438	24.56617736816402	-283.3421936035156	406.43505859375	19.75075340270991	-357.2471313476562	390.87353515625	45.5321083068847	-318.7496948242188	358.7527160644531	36.60247039794916	-478.7236633300782	264.2539367675781	157.400161743164	-346.7551879882812	88.47723388671874	143.8251953124999	-405.6383972167969	101.3247985839843	56.15411376953118	-308.3137817382814	681.5548706054688	399.6812133789062	-246.2101287841798	631.4315795898438	400.7528381347656	-293.838348388672	623.1029663085938	387.5819396972656	-309.6290893554688	333.2982177734375	377.6087341308593	-278.1221008300782	261.2920227050781	368.6395568847656	-325.9743957519532	274.9932556152344	363.2644348144531	-377.6625976562501	65.21746063232419	251.7071838378906	-164.2895965576172	43.77949142456054	255.9176177978515	-215.0097198486329	38.72385787963866	358.3363952636718	-181.1467285156251	1341.468994140625	233.4539031982422	-166.4179840087892	1197.67236328125	228.1859741210937	-276.9521484375001	1411.193359375	63.33346939086909	-285.7712097167969	1260.031005859375	-42.19411849975591	-300.3788757324219	1199.538696289062	-63.48859405517584	-253.3812866210938	1202.47705078125	-42.62358856201177	-252.9431915283203	998.14013671875	-96.69872283935551	-281.9643554687501	926.2407836914062	-82.32656860351568	-235.9266357421875	939.1371459960938	-96.63415527343754	-197.6417541503907	842.0067749023438	-98.8957901000977	-156.7046661376954	851.9110717773438	-32.22759246826175	-259.3473510742189	1389.606811523438	406.6752929687499	-268.2962951660158	1237.385620117188	503.5371398925781	-242.7801055908205	1176.11669921875	504.4606628417968	-290.3582153320314	1178.842041015625	524.506591796875	-244.0150604248049	960.6235961914062	545.8911743164062	-180.5343322753908	914.2184448242188	562.3204956054688	-226.0103454589845	900.5691528320312	545.23095703125	-177.1040496826174	824.1986694335938	549.9036254882812	-146.5722656250001	815.37060546875	473.9792175292969	
58	0.285	-111.7938537597658	1598.174438476562	254.667984008789	-160.6676330566408	1623.542114257812	320.1054077148437	-154.7632598876955	1625.388793945312	182.5624542236328	-343.2534484863283	1443.857055664062	241.3789825439453	-403.6434020996095	1275.72119140625	235.1500244140624	-412.212860107422	1236.013549804688	213.8511352539062	-415.0738220214845	1228.298706054688	263.7159423828124	-408.0565795898439	1171.74267578125	229.1737060546874	-385.9592895507814	1105.539184570312	229.9692382812499	-421.6940002441407	1070.775146484375	217.2317504882812	-418.387664794922	1068.036010742188	267.5254211425781	-424.9613647460939	1008.320983886719	238.170425415039	-407.942596435547	958.47998046875	207.5670013427734	-405.4390563964845	954.0374755859375	258.8255615234374	-420.2205810546876	896.5933837890625	228.9408264160155	-242.4275512695313	678.0928955078125	17.34654617309566	-267.5107421875001	609.114501953125	44.22596359252925	-224.2527313232422	621.13232421875	24.00168418884273	-269.912353515625	404.9753723144531	20.1025943756103	-343.5634155273438	387.6383056640625	45.42742538452142	-304.1861572265625	356.4363098144531	36.82536315917963	-462.6571350097657	257.3953247070312	157.2577667236327	-324.0615844726562	86.72309112548827	143.3661499023437	-383.4165344238281	97.44420623779294	55.70920181274407	-304.5699157714845	682.194580078125	399.5262451171874	-242.9875030517579	631.3650512695312	400.8384094238281	-290.6341857910157	623.5379028320312	387.4422302246093	-308.5920715332032	333.5762939453125	377.2930603027343	-277.3642578125001	261.4323425292969	368.4436035156249	-325.1675109863282	275.3341369628906	362.9625549316406	-377.5110778808594	65.68173217773435	251.3469085693359	-164.2622680664063	43.67726135253906	255.8409881591797	-214.9545288085938	38.80737686157225	358.2210998535156	-174.395462036133	1341.859252929688	233.396499633789	-159.7490234375001	1197.994873046875	228.3704376220703	-270.2173156738282	1411.3212890625	63.21379089355464	-279.8435668945313	1260.055053710938	-42.27291488647466	-294.8685607910157	1199.605590820312	-63.39873886108404	-247.8121032714845	1202.398559570312	-42.79959487915043	-249.1758880615235	998.02734375	-96.78098297119145	-279.0489501953126	926.4654541015625	-82.40339660644537	-232.9190673828125	938.7771606445312	-96.92027282714848	-195.9209442138672	841.2039794921875	-99.61383819580082	-154.6380004882813	850.3011474609375	-33.01435089111331	-252.422576904297	1390.355346679688	406.5503540039062	-260.608612060547	1238.4052734375	503.7854309082031	-234.7776641845705	1177.256713867188	504.7506103515624	-282.3406982421877	1179.800537109375	524.9182739257812	-233.6542816162111	961.6914672851562	546.1045532226562	-169.3773651123049	916.2108764648438	561.9473266601562	-214.7381591796877	901.9365234375	545.0918579101562	-164.6171875000002	826.3141479492188	549.0833129882812	-134.2498474121095	818.3302001953125	473.0255737304688	
59	0.29	-104.9485931396486	1598.357177734375	254.292251586914	-153.812469482422	1623.833862304688	319.698486328125	-147.8973693847658	1625.516845703125	182.1531982421875	-336.453094482422	1444.128295898438	241.2466888427734	-396.9042358398439	1276.01171875	235.3349609374999	-405.4740295410157	1236.301513671875	214.0894165039062	-408.3442993164064	1228.621948242188	263.9599304199218	-401.3608703613282	1172.037963867188	229.4528350830077	-379.3107910156251	1105.818603515625	230.2653656005859	-415.2376403808595	1071.004272460938	217.326675415039	-412.0137939453126	1068.20849609375	267.6256713867187	-418.4279174804689	1008.516723632812	238.1751708984374	-401.2422485351564	958.8555297851562	207.2191467285155	-399.0208129882814	954.196533203125	258.4810791015624	-413.751678466797	896.8977661132812	228.2715759277343	-232.3116302490235	679.2922973632812	16.94846153259273	-257.4149780273438	609.841796875	42.42940521240229	-213.7218475341797	622.4674072265625	23.45158576965328	-256.5855407714844	403.4078674316406	20.48571968078609	-329.8882751464844	384.2206420898438	45.4106712341308	-289.6555480957031	353.9920959472656	37.05640029907222	-446.3275451660157	250.2755126953125	157.0360565185546	-301.2815246582031	84.9748077392578	142.8719329833984	-361.0102233886719	93.53665924072263	55.21186828613275	-300.7914428710939	682.8084106445312	399.4011840820312	-239.7385253906251	631.2894897460938	400.9513549804687	-287.3940429687501	623.9607543945312	387.3410339355468	-307.5206909179688	333.8604736328125	377.0007934570312	-276.5858459472657	261.5782775878906	368.2502441406249	-324.3391418457032	275.6834716796875	362.6867065429687	-377.3615722656251	66.15473175048825	251.0031280517578	-164.2472229003907	43.58611679077148	255.7629699707031	-214.9066772460938	38.89365005493163	358.1099853515624	-167.6398315429689	1342.168701171875	233.3277893066406	-153.0827484130861	1198.2353515625	228.5447082519531	-263.4685363769532	1411.369018554688	63.07867050170893	-273.9129333496094	1260.003662109375	-42.36753845214849	-289.3559570312501	1199.597412109375	-63.32511901855474	-242.2429504394532	1202.245727539062	-42.99010086059575	-245.3964233398438	997.8623657226562	-96.88175964355473	-276.1099243164063	926.6470336914062	-82.48513031005865	-229.8971710205078	938.3756713867188	-97.21985626220707	-194.1849517822266	840.3812866210938	-100.3289794921875	-152.5668945312501	848.6785278320312	-33.80445480346683	-245.4960021972658	1391.027709960938	406.4098205566406	-252.9442138671877	1239.360961914062	504.0267028808593	-226.8041229248049	1178.330810546875	505.0440673828124	-274.3541259765627	1180.700561523438	525.3214111328125	-223.3158569335939	962.7234497070312	546.3048706054688	-158.2584533691408	918.1924438476562	561.5711669921875	-203.4794769287111	903.2861328125	544.92919921875	-152.1565399169924	828.437255859375	548.2307739257812	-121.92488861084	821.3370971679688	472.059814453125	
